{
  "accessors": [
    {
      "bufferView": 2,
      "componentType": 5126,
      "count": 5313,
      "max": [
        11.849800109863281,
        9.5053396224975586,
        190.03500366210938
      ],
      "min": [
        -11.422499656677246,
        -14.959699630737305,
        165.88900756835938
      ],
      "type": "VEC3"
    },
    {
      "bufferView": 2,
      "byteOffset": 63756,
      "componentType": 5126,
      "count": 5313,
      "max": [
        0.99996364116668701,
        0.99806290864944458,
        0.98793494701385498
      ],
      "min": [
        -0.99990355968475342,
        -0.99551361799240112,
        -0.9954601526260376
      ],
      "type": "VEC3"
    },
    {
      "bufferView": 3,
      "componentType": 5126,
      "count": 5313,
      "max": [
        0.9999803900718689,
        0.99998438358306885,
        0.98902261257171631,
        1
      ],
      "min": [
        -0.99999314546585083,
        -0.99999332427978516,
        -0.97397679090499878,
        -1
      ],
      "type": "VEC4"
    },
    {
      "bufferView": 1,
      "componentType": 5126,
      "count": 5313,
      "max": [
        0.95886802673339844,
        0.86577600240707397
      ],
      "min": [
        0.056689001619815826,
        0.28023898601531982
      ],
      "type": "VEC2"
    },
    {
      "bufferView": 0,
      "componentType": 5125,
      "count": 30720,
      "max": [
        5312
      ],
      "min": [
        0
      ],
      "type": "SCALAR"
    },
    {
      "bufferView": 2,
      "byteOffset": 127512,
      "componentType": 5126,
      "count": 39563,
      "max": [
        46.592601776123047,
        15.755000114440918,
        187.71200561523438
      ],
      "min": [
        -46.59320068359375,
        -20.319099426269531,
        0.82278800010681152
      ],
      "type": "VEC3"
    },
    {
      "bufferView": 2,
      "byteOffset": 602268,
      "componentType": 5126,
      "count": 39563,
      "max": [
        0.99998855590820312,
        0.99998658895492554,
        0.9999992847442627
      ],
      "min": [
        -0.99998950958251953,
        -0.9999997615814209,
        -0.9999924898147583
      ],
      "type": "VEC3"
    },
    {
      "bufferView": 3,
      "byteOffset": 85008,
      "componentType": 5126,
      "count": 39563,
      "max": [
        1,
        0.99999994039535522,
        0.99959713220596313,
        1
      ],
      "min": [
        -1,
        -1,
        -0.99993342161178589,
        -1
      ],
      "type": "VEC4"
    },
    {
      "bufferView": 1,
      "byteOffset": 42504,
      "componentType": 5126,
      "count": 39563,
      "max": [
        0.99800801277160645,
        0.94295001029968262
      ],
      "min": [
        0.0019920000340789557,
        0.0018820000113919377
      ],
      "type": "VEC2"
    },
    {
      "bufferView": 0,
      "byteOffset": 122880,
      "componentType": 5125,
      "count": 198528,
      "max": [
        39562
      ],
      "min": [
        0
      ],
      "type": "SCALAR"
    },
    {
      "bufferView": 2,
      "byteOffset": 1077024,
      "componentType": 5126,
      "count": 3804,
      "max": [
        10.473199844360352,
        -0.63128197193145752,
        179.85000610351562
      ],
      "min": [
        -10.473199844360352,
        -17.638700485229492,
        168.96099853515625
      ],
      "type": "VEC3"
    },
    {
      "bufferView": 2,
      "byteOffset": 1122672,
      "componentType": 5126,
      "count": 3804,
      "max": [
        0.99999320507049561,
        0.99993437528610229,
        0.99995911121368408
      ],
      "min": [
        -0.9999154806137085,
        -0.99994879961013794,
        -0.99999618530273438
      ],
      "type": "VEC3"
    },
    {
      "bufferView": 3,
      "byteOffset": 718016,
      "componentType": 5126,
      "count": 3804,
      "max": [
        0.99921244382858276,
        0.99818563461303711,
        0.99998289346694946,
        1
      ],
      "min": [
        -0.9991723895072937,
        -0.99572670459747314,
        -0.99999594688415527,
        -1
      ],
      "type": "VEC4"
    },
    {
      "bufferView": 1,
      "byteOffset": 359008,
      "componentType": 5126,
      "count": 3804,
      "max": [
        1,
        1
      ],
      "min": [
        0,
        0
      ],
      "type": "VEC2"
    },
    {
      "bufferView": 0,
      "byteOffset": 916992,
      "componentType": 5125,
      "count": 19968,
      "max": [
        3803
      ],
      "min": [
        0
      ],
      "type": "SCALAR"
    },
    {
      "bufferView": 2,
      "byteOffset": 1168320,
      "componentType": 5126,
      "count": 263,
      "max": [
        2.9328899383544922,
        6.2117900848388672,
        189.69999694824219
      ],
      "min": [
        -3.4974799156188965,
        1.6946699619293213,
        185.8489990234375
      ],
      "type": "VEC3"
    },
    {
      "bufferView": 2,
      "byteOffset": 1171476,
      "componentType": 5126,
      "count": 263,
      "max": [
        0.99778234958648682,
        0.96795123815536499,
        0.93180626630783081
      ],
      "min": [
        -0.9957922101020813,
        -0.96692579984664917,
        -0.92927420139312744
      ],
      "type": "VEC3"
    },
    {
      "bufferView": 3,
      "byteOffset": 778880,
      "componentType": 5126,
      "count": 263,
      "max": [
        0.99132156372070312,
        0.81257110834121704,
        0.58746111392974854,
        1
      ],
      "min": [
        -0.99982666969299316,
        -0.82884657382965088,
        -0.70905596017837524,
        1
      ],
      "type": "VEC4"
    },
    {
      "bufferView": 1,
      "byteOffset": 389440,
      "componentType": 5126,
      "count": 263,
      "max": [
        1,
        1
      ],
      "min": [
        0,
        0
      ],
      "type": "VEC2"
    },
    {
      "bufferView": 0,
      "byteOffset": 996864,
      "componentType": 5125,
      "count": 960,
      "max": [
        262
      ],
      "min": [
        0
      ],
      "type": "SCALAR"
    },
    {
      "bufferView": 2,
      "byteOffset": 1174632,
      "componentType": 5126,
      "count": 590,
      "max": [
        45.221725463867188,
        45.221725463867188,
        1.3791069984436035
      ],
      "min": [
        -45.221725463867188,
        -45.221725463867188,
        -2.9061660766601562
      ],
      "type": "VEC3"
    },
    {
      "bufferView": 2,
      "byteOffset": 1181712,
      "componentType": 5126,
      "count": 590,
      "max": [
        0.99964058399200439,
        0.99964058399200439,
        1
      ],
      "min": [
        -0.99964058399200439,
        -0.99964058399200439,
        -1
      ],
      "type": "VEC3"
    },
    {
      "bufferView": 3,
      "byteOffset": 783088,
      "componentType": 5126,
      "count": 590,
      "max": [
        0.9999995231628418,
        0.99974346160888672,
        0.041679337620735168,
        1
      ],
      "min": [
        -0.99999946355819702,
        -0.99999946355819702,
        -0.045642901211977005,
        1
      ],
      "type": "VEC4"
    },
    {
      "bufferView": 1,
      "byteOffset": 391544,
      "componentType": 5126,
      "count": 590,
      "max": [
        1,
        1
      ],
      "min": [
        0,
        0
      ],
      "type": "VEC2"
    },
    {
      "bufferView": 0,
      "byteOffset": 1000704,
      "componentType": 5125,
      "count": 3024,
      "max": [
        589
      ],
      "min": [
        0
      ],
      "type": "SCALAR"
    },
    {
      "bufferView": 2,
      "byteOffset": 1188792,
      "componentType": 5126,
      "count": 1666,
      "max": [
        6.5548701286315918,
        -6.0000901222229004,
        178.12699890136719
      ],
      "min": [
        -1.4556699991226196,
        -14.010600090026855,
        170.125
      ],
      "type": "VEC3"
    },
    {
      "bufferView": 2,
      "byteOffset": 1208784,
      "componentType": 5126,
      "count": 1666,
      "max": [
        0.99999994039535522,
        1,
        1
      ],
      "min": [
        -1,
        -1,
        -1
      ],
      "type": "VEC3"
    },
    {
      "bufferView": 3,
      "byteOffset": 792528,
      "componentType": 5126,
      "count": 1666,
      "max": [
        1,
        1,
        0.70717126131057739,
        1
      ],
      "min": [
        -0.70712113380432129,
        -1,
        -1,
        1
      ],
      "type": "VEC4"
    },
    {
      "bufferView": 1,
      "byteOffset": 396264,
      "componentType": 5126,
      "count": 1666,
      "max": [
        0.98618400096893311,
        0.98618400096893311
      ],
      "min": [
        0.013815999962389469,
        0.013815999962389469
      ],
      "type": "VEC2"
    },
    {
      "bufferView": 0,
      "byteOffset": 1012800,
      "componentType": 5125,
      "count": 9216,
      "max": [
        1665
      ],
      "min": [
        0
      ],
      "type": "SCALAR"
    },
    {
      "bufferView": 2,
      "byteOffset": 1228776,
      "componentType": 5126,
      "count": 1666,
      "max": [
        1.4552700519561768,
        -5.999730110168457,
        178.12699890136719
      ],
      "min": [
        -6.5552701950073242,
        -14.010299682617188,
        170.125
      ],
      "type": "VEC3"
    },
    {
      "bufferView": 2,
      "byteOffset": 1248768,
      "componentType": 5126,
      "count": 1666,
      "max": [
        1,
        0.99999994039535522,
        0.99999994039535522
      ],
      "min": [
        -1,
        -1,
        -0.99999994039535522
      ],
      "type": "VEC3"
    },
    {
      "bufferView": 3,
      "byteOffset": 819184,
      "componentType": 5126,
      "count": 1666,
      "max": [
        1,
        1,
        0.70717060565948486,
        1
      ],
      "min": [
        -0.70712852478027344,
        -1,
        -1,
        1
      ],
      "type": "VEC4"
    },
    {
      "bufferView": 1,
      "byteOffset": 409592,
      "componentType": 5126,
      "count": 1666,
      "max": [
        0.98618400096893311,
        0.98618400096893311
      ],
      "min": [
        0.013815999962389469,
        0.013815999962389469
      ],
      "type": "VEC2"
    },
    {
      "bufferView": 0,
      "byteOffset": 1049664,
      "componentType": 5125,
      "count": 9216,
      "max": [
        1665
      ],
      "min": [
        0
      ],
      "type": "SCALAR"
    },
    {
      "bufferView": 2,
      "byteOffset": 1268760,
      "componentType": 5126,
      "count": 124,
      "max": [
        8.9116315841674805,
        -14.446781158447266,
        179.63813781738281
      ],
      "min": [
        -8.9116315841674805,
        -17.201696395874023,
        169.42643737792969
      ],
      "type": "VEC3"
    },
    {
      "bufferView": 2,
      "byteOffset": 1270248,
      "componentType": 5126,
      "count": 124,
      "max": [
        0.33404567837715149,
        0.94255739450454712,
        2.0762679753261182e-07
      ],
      "min": [
        -0.33404567837715149,
        -0.94255721569061279,
        -1.9412027540965937e-07
      ],
      "type": "VEC3"
    },
    {
      "bufferView": 3,
      "byteOffset": 845840,
      "componentType": 5126,
      "count": 124,
      "max": [
        0.94255709648132324,
        0.33404561877250671,
        0.16910058259963989,
        1
      ],
      "min": [
        -0.94255709648132324,
        0.32923373579978943,
        -0.16910062730312347,
        -1
      ],
      "type": "VEC4"
    },
    {
      "bufferView": 1,
      "byteOffset": 422920,
      "componentType": 5126,
      "count": 124,
      "max": [
        0.65625,
        0.99235302209854126
      ],
      "min": [
        0.34375,
        0.0076469997875392437
      ],
      "type": "VEC2"
    },
    {
      "bufferView": 0,
      "byteOffset": 1086528,
      "componentType": 5125,
      "count": 480,
      "max": [
        123
      ],
      "min": [
        0
      ],
      "type": "SCALAR"
    },
    {
      "bufferView": 2,
      "byteOffset": 1271736,
      "componentType": 5126,
      "count": 6660,
      "max": [
        10.317031860351562,
        18.109230041503906,
        199.65415954589844
      ],
      "min": [
        -10.596074104309082,
        -11.552394866943359,
        163.76329040527344
      ],
      "type": "VEC3"
    },
    {
      "bufferView": 2,
      "byteOffset": 1351656,
      "componentType": 5126,
      "count": 6660,
      "max": [
        0.9999767541885376,
        0.99958360195159912,
        0.99971985816955566
      ],
      "min": [
        -0.99998098611831665,
        -0.98360729217529297,
        -0.99513202905654907
      ],
      "type": "VEC3"
    },
    {
      "bufferView": 3,
      "byteOffset": 847824,
      "componentType": 5126,
      "count": 6660,
      "max": [
        0.99999850988388062,
        0.99999934434890747,
        0.99999642372131348,
        1
      ],
      "min": [
        -0.99999845027923584,
        -0.99999988079071045,
        -0.99999642372131348,
        -1
      ],
      "type": "VEC4"
    },
    {
      "bufferView": 1,
      "byteOffset": 423912,
      "componentType": 5126,
      "count": 6660,
      "max": [
        0.96442800760269165,
        0.99800801277160645
      ],
      "min": [
        0.0019249999895691872,
        0.0019920000340789557
      ],
      "type": "VEC2"
    },
    {
      "bufferView": 0,
      "byteOffset": 1088448,
      "componentType": 5125,
      "count": 25440,
      "max": [
        6659
      ],
      "min": [
        0
      ],
      "type": "SCALAR"
    }
  ],
  "asset": {
    "extras": {
      "author": "emperial.rat (https://sketchfab.com/emperial.rat)",
      "license": "CC-BY-4.0 (http://creativecommons.org/licenses/by/4.0/)",
      "source": "https://sketchfab.com/3d-models/girl-with-glasses-094ee5dcb94e4b8787d314662be3a80e",
      "title": "Girl With Glasses"
    },
    "generator": "Sketchfab-5.33.0",
    "version": "2.0"
  },
  "bufferViews": [
    {
      "buffer": 0,
      "byteLength": 1190208,
      "byteOffset": 0,
      "name": "floatBufferViews",
      "target": 34963
    },
    {
      "buffer": 0,
      "byteLength": 477192,
      "byteOffset": 1190208,
      "byteStride": 8,
      "name": "floatBufferViews",
      "target": 34962
    },
    {
      "buffer": 0,
      "byteLength": 1431576,
      "byteOffset": 1667400,
      "byteStride": 12,
      "name": "floatBufferViews",
      "target": 34962
    },
    {
      "buffer": 0,
      "byteLength": 954384,
      "byteOffset": 3098976,
      "byteStride": 16,
      "name": "floatBufferViews",
      "target": 34962
    }
  ],
  "buffers": [
    {
      "byteLength": 4053360,
      "uri": "scene.bin"
    }
  ],
  "images": [
    {
      "uri": "textures/cadre_baseColor.png"
    },
    {
      "uri": "textures/chakal_baseColor.png"
    },
    {
      "uri": "textures/bandana_baseColor.png"
    },
    {
      "uri": "textures/hair_baseColor.png"
    },
    {
      "uri": "textures/material_baseColor.png"
    },
    {
      "uri": "textures/body_normal.png"
    },
    {
      "uri": "textures/body_baseColor.png"
    }
  ],
  "materials": [
    {
      "doubleSided": true,
      "emissiveFactor": [
        0,
        0,
        0
      ],
      "name": "bandana",
      "pbrMetallicRoughness": {
        "baseColorFactor": [
          1,
          1,
          1,
          1
        ],
        "baseColorTexture": {
          "index": 2,
          "texCoord": 0
        },
        "metallicFactor": 0,
        "roughnessFactor": 0.59999999999999998
      }
    },
    {
      "doubleSided": true,
      "emissiveFactor": [
        0,
        0,
        0
      ],
      "name": "body",
      "normalTexture": {
        "index": 5,
        "scale": 1,
        "texCoord": 0
      },
      "pbrMetallicRoughness": {
        "baseColorFactor": [
          1,
          1,
          1,
          1
        ],
        "baseColorTexture": {
          "index": 6,
          "texCoord": 0
        },
        "metallicFactor": 0,
        "roughnessFactor": 0.59999999999999998
      }
    },
    {
      "doubleSided": true,
      "emissiveFactor": [
        0,
        0,
        0
      ],
      "name": "cadre",
      "pbrMetallicRoughness": {
        "baseColorFactor": [
          1,
          1,
          1,
          1
        ],
        "baseColorTexture": {
          "index": 0,
          "texCoord": 0
        },
        "metallicFactor": 0,
        "roughnessFactor": 0.59999999999999998
      }
    },
    {
      "doubleSided": true,
      "emissiveFactor": [
        0,
        0,
        0
      ],
      "name": "chakal",
      "pbrMetallicRoughness": {
        "baseColorFactor": [
          1,
          1,
          1,
          1
        ],
        "baseColorTexture": {
          "index": 1,
          "texCoord": 0
        },
        "metallicFactor": 0,
        "roughnessFactor": 0.59999999999999998
      }
    },
    {
      "doubleSided": true,
      "emissiveFactor": [
        0,
        0,
        0
      ],
      "name": "concrete",
      "pbrMetallicRoughness": {
        "baseColorFactor": [
          0.98996368810000002,
          0.70142493859999999,
          0.4423437999,
          1
        ],
        "metallicFactor": 0,
        "roughnessFactor": 0.59999999999999998
      }
    },
    {
      "doubleSided": true,
      "emissiveFactor": [
        0,
        0,
        0
      ],
      "name": "material",
      "pbrMetallicRoughness": {
        "baseColorFactor": [
          1,
          1,
          1,
          1
        ],
        "baseColorTexture": {
          "index": 4,
          "texCoord": 0
        },
        "metallicFactor": 0,
        "roughnessFactor": 0
      }
    },
    {
      "alphaMode": "BLEND",
      "doubleSided": true,
      "emissiveFactor": [
        0,
        0,
        0
      ],
      "name": "glass",
      "pbrMetallicRoughness": {
        "baseColorFactor": [
          1,
          1,
          1,
          0.31624742420000002
        ],
        "metallicFactor": 0.88228516010000002,
        "roughnessFactor": 0
      }
    },
    {
      "doubleSided": true,
      "emissiveFactor": [
        0,
        0,
        0
      ],
      "name": "hair",
      "pbrMetallicRoughness": {
        "baseColorFactor": [
          1,
          1,
          1,
          1
        ],
        "baseColorTexture": {
          "index": 3,
          "texCoord": 0
        },
        "metallicFactor": 0,
        "roughnessFactor": 0.59999999999999998
      }
    }
  ],
  "meshes": [
    {
      "primitives": [
        {
          "attributes": {
            "NORMAL": 1,
            "POSITION": 0,
            "TANGENT": 2,
            "TEXCOORD_0": 3
          },
          "indices": 4,
          "material": 0,
          "mode": 4
        }
      ]
    },
    {
      "primitives": [
        {
          "attributes": {
            "NORMAL": 6,
            "POSITION": 5,
            "TANGENT": 7,
            "TEXCOORD_0": 8
          },
          "indices": 9,
          "material": 1,
          "mode": 4
        }
      ]
    },
    {
      "primitives": [
        {
          "attributes": {
            "NORMAL": 11,
            "POSITION": 10,
            "TANGENT": 12,
            "TEXCOORD_0": 13
          },
          "indices": 14,
          "material": 2,
          "mode": 4
        }
      ]
    },
    {
      "primitives": [
        {
          "attributes": {
            "NORMAL": 16,
            "POSITION": 15,
            "TANGENT": 17,
            "TEXCOORD_0": 18
          },
          "indices": 19,
          "material": 3,
          "mode": 4
        }
      ]
    },
    {
      "primitives": [
        {
          "attributes": {
            "NORMAL": 21,
            "POSITION": 20,
            "TANGENT": 22,
            "TEXCOORD_0": 23
          },
          "indices": 24,
          "material": 4,
          "mode": 4
        }
      ]
    },
    {
      "primitives": [
        {
          "attributes": {
            "NORMAL": 26,
            "POSITION": 25,
            "TANGENT": 27,
            "TEXCOORD_0": 28
          },
          "indices": 29,
          "material": 5,
          "mode": 4
        }
      ]
    },
    {
      "primitives": [
        {
          "attributes": {
            "NORMAL": 31,
            "POSITION": 30,
            "TANGENT": 32,
            "TEXCOORD_0": 33
          },
          "indices": 34,
          "material": 5,
          "mode": 4
        }
      ]
    },
    {
      "primitives": [
        {
          "attributes": {
            "NORMAL": 36,
            "POSITION": 35,
            "TANGENT": 37,
            "TEXCOORD_0": 38
          },
          "indices": 39,
          "material": 6,
          "mode": 4
        }
      ]
    },
    {
      "primitives": [
        {
          "attributes": {
            "NORMAL": 41,
            "POSITION": 40,
            "TANGENT": 42,
            "TEXCOORD_0": 43
          },
          "indices": 44,
          "material": 7,
          "mode": 4
        }
      ]
    }
  ],
  "nodes": [
    {
      "children": [
        1
      ],
      "name": "RootNode (gltf orientation matrix)",
      "rotation": [
        -0.70710678118654746,
        -0,
        -0,
        0.70710678118654757
      ]
    },
    {
      "children": [
        2
      ],
      "name": "RootNode (model correction matrix)"
    },
    {
      "children": [
        3,
        4,
        5,
        6,
        7,
        8,
        9,
        10,
        11
      ],
      "name": "girl.obj.cleaner.materialmerger.gles"
    },
    {
      "mesh": 0,
      "name": ""
    },
    {
      "mesh": 1,
      "name": ""
    },
    {
      "mesh": 2,
      "name": ""
    },
    {
      "mesh": 3,
      "name": ""
    },
    {
      "mesh": 4,
      "name": ""
    },
    {
      "mesh": 5,
      "name": ""
    },
    {
      "mesh": 6,
      "name": ""
    },
    {
      "mesh": 7,
      "name": ""
    },
    {
      "mesh": 8,
      "name": ""
    }
  ],
  "samplers": [
    {
      "magFilter": 9729,
      "minFilter": 9987,
      "wrapS": 10497,
      "wrapT": 10497
    }
  ],
  "scene": 0,
  "scenes": [
    {
      "name": "OSG_Scene",
      "nodes": [
        0
      ]
    }
  ],
  "textures": [
    {
      "sampler": 0,
      "source": 0
    },
    {
      "sampler": 0,
      "source": 1
    },
    {
      "sampler": 0,
      "source": 2
    },
    {
      "sampler": 0,
      "source": 3
    },
    {
      "sampler": 0,
      "source": 4
    },
    {
      "sampler": 0,
      "source": 5
    },
    {
      "sampler": 0,
      "source": 6
    }
  ]
}

